<svg width="64" height="64" viewBox="0 0 64 64" fill="none" xmlns="http://www.w3.org/2000/svg">
<rect width="64" height="64" rx="8" fill="#101010"/>
<path d="M50.7914 30.9269C50.7914 34.1131 49.3262 36.6943 46.4005 38.6609C43.9395 40.3155 41.3031 41.1427 38.5007 41.1427V44.0123L38.7046 44.2155L42.9722 44.7639C43.1097 44.7639 43.1761 44.8301 43.1761 44.9672V45.8843C43.1761 46.0214 43.1097 46.0876 42.9722 46.0876H30.8047C30.6672 46.0876 30.6008 46.0214 30.6008 45.8843V44.9672C30.6008 44.8301 30.6672 44.7639 30.8047 44.7639L35.0724 44.2534L35.2763 44.0501V41.138C32.0898 41.138 29.3205 40.3155 26.9686 38.6751C24.3132 36.8172 22.9902 34.3259 22.9902 31.2058C22.9902 28.0857 24.3322 25.5329 27.0113 23.6751C29.3395 22.0583 32.1087 21.2546 35.3189 21.2546V19.0375L35.0724 18.8342L30.8047 18.2433C30.6672 18.2433 30.6008 18.1771 30.6008 18.04V17.2033C30.6008 17.0662 30.6672 17 30.8047 17H42.9722C43.1097 17 43.1761 17.0662 43.1761 17.2033V18.04C43.1761 18.1771 43.1097 18.2433 42.9722 18.2433L38.7046 18.8342L38.5007 19.0375V21.2546C41.8484 21.2546 44.6271 21.959 46.832 23.3725C49.4732 25.0696 50.7914 27.5846 50.7914 30.9221V30.9269ZM46.7704 30.5581C46.7704 28.1141 45.969 26.1617 44.3616 24.6962C42.811 23.2874 40.8574 22.5783 38.5007 22.5783V39.7576C40.8289 39.7576 42.7683 38.9634 44.3189 37.375C45.9501 35.6921 46.7704 33.4182 46.7704 30.5581V30.5581ZM35.2763 22.5783C32.9101 22.5783 30.9328 23.3583 29.3585 24.9184C27.7937 26.4642 27.0113 28.4403 27.0113 30.8418C27.0113 33.5837 27.8269 35.7819 29.4628 37.4365C30.9991 38.9823 32.9385 39.7576 35.281 39.7576V22.5783H35.2763Z" fill="white"/>
<path d="M6 45.9846L19.0769 17H24.0708L10.9939 45.9846H6Z" fill="white"/>
<path d="M58.4135 42.1911C58.4135 44.3229 56.6853 46.051 54.5535 46.051C52.4216 46.051 50.6934 44.3229 50.6934 42.1911C50.6934 40.0592 52.4216 38.3311 54.5535 38.3311C56.6853 38.3311 58.4135 40.0592 58.4135 42.1911Z" fill="white"/>
</svg>
