<svg width="1080" height="600" viewBox="0 0 1080 600" fill="none" xmlns="http://www.w3.org/2000/svg">
<path d="M922.888 286.962C922.888 352.614 892.698 405.799 832.416 446.32C781.708 480.413 727.386 497.459 669.644 497.459V556.585L673.845 560.774L761.777 572.073C764.611 572.073 765.978 573.437 765.978 576.262V595.159C765.978 597.983 764.611 599.347 761.777 599.347H511.074C508.24 599.347 506.872 597.983 506.872 595.159V576.262C506.872 573.437 508.24 572.073 511.074 572.073L599.005 561.553L603.207 557.365V497.362C537.551 497.362 480.493 480.413 432.033 446.612C377.319 408.331 350.061 356.998 350.061 292.709C350.061 228.42 377.71 175.82 432.912 137.539C480.884 104.226 537.942 87.6666 604.086 87.6666V41.9825L599.005 37.7941L511.074 25.6182C508.24 25.6182 506.872 24.2544 506.872 21.4296V4.18859C506.872 1.36378 508.24 0 511.074 0H761.777C764.611 0 765.978 1.36378 765.978 4.18859V21.4296C765.978 24.2544 764.611 25.6182 761.777 25.6182L673.845 37.7941L669.644 41.9825V87.6666C738.622 87.6666 795.875 102.18 841.307 131.305C895.727 166.274 922.888 218.095 922.888 286.864V286.962ZM840.037 279.364C840.037 229.005 823.525 188.775 790.404 158.579C758.455 129.552 718.202 114.941 669.644 114.941V468.919C717.616 468.919 757.576 452.554 789.525 419.825C823.134 385.148 840.037 338.296 840.037 279.364V279.364ZM603.207 114.941C554.453 114.941 513.712 131.013 481.274 163.157C449.033 195.009 432.912 235.726 432.912 285.209C432.912 341.705 449.717 386.999 483.424 421.092C515.079 452.944 555.04 468.919 603.304 468.919V114.941H603.207Z" fill="white"/>
<path d="M0 597.226L269.441 0H372.338L102.897 597.226H0Z" fill="white"/>
<ellipse cx="1000.46" cy="519.07" rx="79.5349" ry="79.5349" fill="white"/>
</svg>
